<svg width="600" height="520" viewBox="0 0 600 520" fill="none" xmlns="http://www.w3.org/2000/svg">
<rect width="291.88" height="291.88" rx="24" transform="matrix(0.279087 -0.960266 0.960554 0.278093 64 289.281)" fill="#F2F6FF"/>
<rect width="270.81" height="270.81" rx="24" transform="matrix(-0.403486 -0.914986 0.914568 -0.404433 292.27 502.311)" fill="#E5EEFF"/>
<g filter="url(#filter0_d_2076_68576)">
<path d="M34.3219 134.917C33.5422 131.524 35.6588 128.134 39.0495 127.345L220.963 85.0329C224.353 84.2442 227.734 86.3552 228.514 89.748L281.675 321.082C282.455 324.474 280.338 327.864 276.948 328.653L95.0345 370.965C91.6438 371.754 88.2631 369.643 87.4834 366.25L34.3219 134.917Z" fill="white"/>
<path d="M39.4024 128.881L221.316 86.5686C223.859 85.9771 226.394 87.5604 226.979 90.105L280.14 321.439C280.725 323.983 279.138 326.526 276.595 327.117L94.6815 369.43C92.1385 370.021 89.603 368.438 89.0182 365.893L35.8567 134.56C35.272 132.015 36.8594 129.473 39.4024 128.881Z" stroke="#D1D1D1" stroke-width="3.15162"/>
</g>
<rect width="166.825" height="6.71962" rx="3.35981" transform="matrix(0.974 -0.22655 0.223967 0.974597 53.7617 146.951)" fill="#0055FF"/>
<rect x="92.6289" y="185.861" width="63.8127" height="5.92786" rx="2.96393" transform="rotate(-13.0852 92.6289 185.861)" fill="#DDDDDD"/>
<rect x="74.1133" y="167.852" width="134.605" height="5.92786" rx="2.96393" transform="rotate(-13.0852 74.1133 167.852)" fill="#CCDDFF"/>
<rect x="90.3945" y="176.238" width="63.8127" height="5.92786" rx="2.96393" transform="rotate(-13.0852 90.3945 176.238)" fill="#DDDDDD"/>
<rect x="94.8672" y="195.486" width="63.8127" height="5.92786" rx="2.96393" transform="rotate(-13.0852 94.8672 195.486)" fill="#DDDDDD"/>
<rect x="97.1055" y="205.109" width="63.8127" height="5.92786" rx="2.96393" transform="rotate(-13.0852 97.1055 205.109)" fill="#DDDDDD"/>
<ellipse cx="84.2682" cy="180.706" rx="2.99122" ry="2.96393" transform="rotate(-13.0852 84.2682 180.706)" fill="#DDDDDD"/>
<ellipse cx="86.5026" cy="190.329" rx="2.99122" ry="2.96393" transform="rotate(-13.0852 86.5026 190.329)" fill="#DDDDDD"/>
<ellipse cx="88.7408" cy="199.952" rx="2.99122" ry="2.96393" transform="rotate(-13.0852 88.7408 199.952)" fill="#DDDDDD"/>
<ellipse cx="90.9752" cy="209.575" rx="2.99122" ry="2.96393" transform="rotate(-13.0852 90.9752 209.575)" fill="#D1D1D1"/>
<rect x="106.945" y="247.449" width="63.8127" height="5.92786" rx="2.96393" transform="rotate(-13.0852 106.945 247.449)" fill="#D1D1D1"/>
<rect x="88.4297" y="229.439" width="134.605" height="5.92786" rx="2.96393" transform="rotate(-13.0852 88.4297 229.439)" fill="#CCDDFF"/>
<rect x="104.711" y="237.826" width="63.8127" height="5.92786" rx="2.96393" transform="rotate(-13.0852 104.711 237.826)" fill="#D1D1D1"/>
<rect x="109.184" y="257.072" width="63.8127" height="5.92786" rx="2.96393" transform="rotate(-13.0852 109.184 257.072)" fill="#D1D1D1"/>
<rect x="111.422" y="266.697" width="63.8127" height="5.92786" rx="2.96393" transform="rotate(-13.0852 111.422 266.697)" fill="#D1D1D1"/>
<ellipse cx="98.5846" cy="242.294" rx="2.99122" ry="2.96393" transform="rotate(-13.0852 98.5846 242.294)" fill="#D1D1D1"/>
<ellipse cx="100.819" cy="251.917" rx="2.99122" ry="2.96393" transform="rotate(-13.0852 100.819 251.917)" fill="#D1D1D1"/>
<ellipse cx="103.057" cy="261.54" rx="2.99122" ry="2.96393" transform="rotate(-13.0852 103.057 261.54)" fill="#D1D1D1"/>
<ellipse cx="105.292" cy="271.163" rx="2.99122" ry="2.96393" transform="rotate(-13.0852 105.292 271.163)" fill="#D1D1D1"/>
<rect x="121.262" y="309.039" width="63.8127" height="5.92786" rx="2.96393" transform="rotate(-13.0852 121.262 309.039)" fill="#D1D1D1"/>
<rect x="102.746" y="291.027" width="134.605" height="5.92786" rx="2.96393" transform="rotate(-13.0852 102.746 291.027)" fill="#CCDDFF"/>
<rect x="119.027" y="299.416" width="63.8127" height="5.92786" rx="2.96393" transform="rotate(-13.0852 119.027 299.416)" fill="#D1D1D1"/>
<rect x="123.5" y="318.662" width="63.8127" height="5.92786" rx="2.96393" transform="rotate(-13.0852 123.5 318.662)" fill="#D1D1D1"/>
<rect x="125.734" y="328.285" width="63.8127" height="5.92786" rx="2.96393" transform="rotate(-13.0852 125.734 328.285)" fill="#D1D1D1"/>
<ellipse cx="112.897" cy="303.882" rx="2.99122" ry="2.96393" transform="rotate(-13.0852 112.897 303.882)" fill="#D1D1D1"/>
<ellipse cx="115.135" cy="313.505" rx="2.99122" ry="2.96393" transform="rotate(-13.0852 115.135 313.505)" fill="#D1D1D1"/>
<ellipse cx="117.374" cy="323.13" rx="2.99122" ry="2.96393" transform="rotate(-13.0852 117.374 323.13)" fill="#D1D1D1"/>
<ellipse cx="119.608" cy="332.753" rx="2.99122" ry="2.96393" transform="rotate(-13.0852 119.608 332.753)" fill="#D1D1D1"/>
<path fill-rule="evenodd" clip-rule="evenodd" d="M558.71 424.14C557.763 423.193 557.763 421.658 558.71 420.71C559.657 419.763 561.192 419.763 562.139 420.71L567.282 425.855C568.229 426.803 568.229 428.338 567.282 429.285C566.335 430.233 564.8 430.233 563.853 429.285L558.71 424.14ZM570.713 436.145C569.766 435.197 569.766 433.662 570.713 432.715C571.66 431.767 573.195 431.767 574.142 432.715L579.285 437.86C580.232 438.807 580.232 440.342 579.285 441.29C578.338 442.237 576.803 442.237 575.856 441.29L570.713 436.145ZM558.71 441.29C559.657 442.237 561.192 442.237 562.139 441.29L567.282 436.145C568.229 435.197 568.229 433.662 567.282 432.715C566.335 431.767 564.8 431.767 563.853 432.715L558.71 437.86C557.763 438.807 557.763 440.342 558.71 441.29ZM574.147 429.286C573.2 430.233 571.665 430.233 570.718 429.286C569.771 428.339 569.771 426.803 570.718 425.856L575.861 420.711C576.808 419.764 578.343 419.764 579.29 420.711C580.237 421.658 580.237 423.194 579.29 424.141L574.147 429.286Z" fill="#3D99F5"/>
<path fill-rule="evenodd" clip-rule="evenodd" d="M552 473C552 479.075 547.075 484 541 484C534.925 484 530 479.075 530 473C530 466.925 534.925 462 541 462C547.075 462 552 466.925 552 473ZM535.501 473C535.501 476.038 537.963 478.5 541.001 478.5C544.038 478.5 546.501 476.038 546.501 473C546.501 469.962 544.038 467.5 541.001 467.5C537.963 467.5 535.501 469.962 535.501 473Z" fill="#FF5975"/>
<path fill-rule="evenodd" clip-rule="evenodd" d="M36.7101 54.1404C35.7633 53.1932 35.7633 51.6576 36.7101 50.7104C37.657 49.7632 39.1921 49.7632 40.139 50.7104L45.2822 55.8554C46.229 56.8026 46.229 58.3382 45.2822 59.2854C44.3353 60.2326 42.8002 60.2326 41.8534 59.2854L36.7101 54.1404ZM48.7132 66.1446C47.7664 65.1974 47.7664 63.6617 48.7132 62.7145C49.66 61.7674 51.1952 61.7674 52.142 62.7145L57.2853 67.8596C58.2321 68.8067 58.2321 70.3424 57.2853 71.2896C56.3384 72.2368 54.8033 72.2368 53.8564 71.2896L48.7132 66.1446ZM36.7101 71.2896C37.657 72.2368 39.1921 72.2368 40.139 71.2896L45.2822 66.1446C46.229 65.1974 46.229 63.6617 45.2822 62.7145C44.3353 61.7674 42.8002 61.7674 41.8534 62.7145L36.7101 67.8596C35.7633 68.8067 35.7633 70.3424 36.7101 71.2896ZM52.1467 59.2858C51.1999 60.233 49.6647 60.233 48.7179 59.2858C47.7711 58.3387 47.7711 56.803 48.7179 55.8559L53.861 50.7108C54.8079 49.7637 56.343 49.7637 57.2899 50.7108C58.2367 51.658 58.2367 53.1936 57.2899 54.1408L52.1467 59.2858Z" fill="#3D99F5"/>
<path fill-rule="evenodd" clip-rule="evenodd" d="M94 32C94 38.0751 89.0751 43 83 43C76.9249 43 72 38.0751 72 32C72 25.9249 76.9249 21 83 21C89.0751 21 94 25.9249 94 32ZM77.5009 32C77.5009 35.0376 79.9633 37.5 83.0009 37.5C86.0384 37.5 88.5009 35.0376 88.5009 32C88.5009 28.9625 86.0384 26.5001 83.0009 26.5001C79.9633 26.5001 77.5009 28.9625 77.5009 32Z" fill="#FF5975"/>
<g filter="url(#filter1_d_2076_68576)">
<path d="M377.579 71.1044C378.53 67.7557 382.017 65.8049 385.369 66.7472L565.729 117.461C569.08 118.404 571.026 121.882 570.074 125.231L505.218 353.561C504.267 356.91 500.779 358.86 497.428 357.918L317.068 307.204C313.717 306.262 311.771 302.783 312.722 299.434L377.579 71.1044Z" fill="white"/>
<path d="M384.938 68.2631L565.298 118.977C567.812 119.684 569.271 122.293 568.558 124.804L503.701 353.134C502.988 355.646 500.372 357.109 497.859 356.402L317.498 305.688C314.985 304.981 313.526 302.372 314.239 299.861L379.095 71.5309C379.809 69.0194 382.425 67.5563 384.938 68.2631Z" stroke="#D1D1D1" stroke-width="3.15162"/>
</g>
<rect width="167.314" height="6.71959" rx="3.3598" transform="matrix(0.962668 0.270686 -0.273237 0.961947 388.863 91.0273)" fill="#0055FF"/>
<rect x="403.887" y="144.15" width="63.5259" height="5.78575" rx="2.89287" transform="rotate(15.7139 403.887 144.15)" fill="#DDDDDD"/>
<rect x="396.254" y="119.965" width="134" height="5.78575" rx="2.89287" transform="rotate(15.7139 396.254 119.965)" fill="#CCDDFF"/>
<rect x="406.496" y="134.867" width="63.5259" height="5.78575" rx="2.89287" transform="rotate(15.7139 406.496 134.867)" fill="#DDDDDD"/>
<ellipse cx="399.024" cy="135.771" rx="2.97778" ry="2.89287" transform="rotate(15.7139 399.024 135.771)" fill="#DDDDDD"/>
<ellipse cx="396.415" cy="145.052" rx="2.97778" ry="2.89287" transform="rotate(15.7139 396.415 145.052)" fill="#DDDDDD"/>
<rect x="392.238" y="185.543" width="63.5259" height="5.78575" rx="2.89287" transform="rotate(15.7139 392.238 185.543)" fill="#DDDDDD"/>
<rect x="384.605" y="161.357" width="134" height="5.78575" rx="2.89287" transform="rotate(15.7139 384.605 161.357)" fill="#CCDDFF"/>
<rect x="394.848" y="176.26" width="63.5259" height="5.78575" rx="2.89287" transform="rotate(15.7139 394.848 176.26)" fill="#DDDDDD"/>
<ellipse cx="387.376" cy="177.163" rx="2.97778" ry="2.89287" transform="rotate(15.7139 387.376 177.163)" fill="#DDDDDD"/>
<ellipse cx="384.767" cy="186.445" rx="2.97778" ry="2.89287" transform="rotate(15.7139 384.767 186.445)" fill="#DDDDDD"/>
<rect x="380.594" y="226.936" width="63.5259" height="5.78575" rx="2.89287" transform="rotate(15.7139 380.594 226.936)" fill="#DDDDDD"/>
<rect x="372.961" y="202.75" width="134" height="5.78575" rx="2.89287" transform="rotate(15.7139 372.961 202.75)" fill="#CCDDFF"/>
<rect x="383.203" y="217.652" width="63.5259" height="5.78575" rx="2.89287" transform="rotate(15.7139 383.203 217.652)" fill="#DDDDDD"/>
<ellipse cx="375.731" cy="218.556" rx="2.97778" ry="2.89287" transform="rotate(15.7139 375.731 218.556)" fill="#DDDDDD"/>
<ellipse cx="373.122" cy="227.837" rx="2.97778" ry="2.89287" transform="rotate(15.7139 373.122 227.837)" fill="#DDDDDD"/>
<rect x="368.949" y="268.328" width="63.5259" height="5.78575" rx="2.89287" transform="rotate(15.7139 368.949 268.328)" fill="#DDDDDD"/>
<rect x="361.316" y="244.143" width="134" height="5.78575" rx="2.89287" transform="rotate(15.7139 361.316 244.143)" fill="#CCDDFF"/>
<rect x="371.559" y="259.045" width="63.5259" height="5.78575" rx="2.89287" transform="rotate(15.7139 371.559 259.045)" fill="#DDDDDD"/>
<ellipse cx="364.087" cy="259.949" rx="2.97778" ry="2.89287" transform="rotate(15.7139 364.087 259.949)" fill="#DDDDDD"/>
<ellipse cx="361.478" cy="269.23" rx="2.97778" ry="2.89287" transform="rotate(15.7139 361.478 269.23)" fill="#DDDDDD"/>
<g filter="url(#filter2_d_2076_68576)">
<path d="M210.613 191.336C210.622 187.855 213.451 185.033 216.932 185.032L404.326 185.003C407.807 185.003 410.622 187.824 410.613 191.306L410.02 428.698C410.012 432.18 407.182 435.002 403.701 435.003L216.308 435.031C212.827 435.032 210.012 432.21 210.02 428.729L210.613 191.336Z" fill="white"/>
<path d="M216.928 186.608L404.322 186.579C406.933 186.579 409.044 188.695 409.037 191.306L408.444 428.699C408.438 431.31 406.316 433.426 403.705 433.427L216.312 433.456C213.701 433.456 211.59 431.34 211.596 428.729L212.189 191.336C212.195 188.725 214.317 186.608 216.928 186.608Z" stroke="#D1D1D1" stroke-width="3.15162"/>
</g>
<rect width="164" height="8" rx="4" transform="matrix(1 0 -0.00265141 0.999996 226.004 206)" fill="#0055FF"/>
<rect x="240.004" y="230.002" width="120" height="6" rx="3" fill="#CCDDFF"/>
<rect x="240.004" y="240.002" width="120" height="6" rx="3" fill="#CCDDFF"/>
<path d="M368.8 239.92C368.727 239.421 368.741 238.967 368.844 238.556C368.961 238.145 369.123 237.764 369.328 237.412C369.533 237.06 369.761 236.737 370.01 236.444C370.274 236.151 370.523 235.872 370.758 235.608C370.993 235.329 371.183 235.065 371.33 234.816C371.491 234.552 371.572 234.281 371.572 234.002C371.572 233.547 371.433 233.203 371.154 232.968C370.89 232.733 370.538 232.616 370.098 232.616C369.687 232.616 369.321 232.711 368.998 232.902C368.69 233.093 368.389 233.335 368.096 233.628L366.314 232C366.827 231.399 367.436 230.915 368.14 230.548C368.859 230.181 369.651 229.998 370.516 229.998C371.103 229.998 371.645 230.071 372.144 230.218C372.657 230.365 373.097 230.592 373.464 230.9C373.845 231.208 374.139 231.604 374.344 232.088C374.564 232.557 374.674 233.115 374.674 233.76C374.674 234.215 374.593 234.625 374.432 234.992C374.271 235.344 374.065 235.674 373.816 235.982C373.581 236.29 373.325 236.591 373.046 236.884C372.782 237.163 372.533 237.456 372.298 237.764C372.078 238.072 371.902 238.402 371.77 238.754C371.638 239.091 371.594 239.48 371.638 239.92H368.8ZM370.208 245.266C369.651 245.266 369.189 245.075 368.822 244.694C368.455 244.298 368.272 243.814 368.272 243.242C368.272 242.655 368.455 242.171 368.822 241.79C369.189 241.394 369.651 241.196 370.208 241.196C370.765 241.196 371.227 241.394 371.594 241.79C371.975 242.171 372.166 242.655 372.166 243.242C372.166 243.814 371.975 244.298 371.594 244.694C371.227 245.075 370.765 245.266 370.208 245.266Z" fill="#0055FF"/>
<rect x="240" y="268.002" width="120" height="6" rx="3" fill="#CCDDFF"/>
<rect x="240" y="278.002" width="120" height="6" rx="3" fill="#CCDDFF"/>
<path d="M368.796 277.92C368.723 277.421 368.738 276.967 368.84 276.556C368.958 276.145 369.119 275.764 369.324 275.412C369.53 275.06 369.757 274.737 370.006 274.444C370.27 274.151 370.52 273.872 370.754 273.608C370.989 273.329 371.18 273.065 371.326 272.816C371.488 272.552 371.568 272.281 371.568 272.002C371.568 271.547 371.429 271.203 371.15 270.968C370.886 270.733 370.534 270.616 370.094 270.616C369.684 270.616 369.317 270.711 368.994 270.902C368.686 271.093 368.386 271.335 368.092 271.628L366.31 270C366.824 269.399 367.432 268.915 368.136 268.548C368.855 268.181 369.647 267.998 370.512 267.998C371.099 267.998 371.642 268.071 372.14 268.218C372.654 268.365 373.094 268.592 373.46 268.9C373.842 269.208 374.135 269.604 374.34 270.088C374.56 270.557 374.67 271.115 374.67 271.76C374.67 272.215 374.59 272.625 374.428 272.992C374.267 273.344 374.062 273.674 373.812 273.982C373.578 274.29 373.321 274.591 373.042 274.884C372.778 275.163 372.529 275.456 372.294 275.764C372.074 276.072 371.898 276.402 371.766 276.754C371.634 277.091 371.59 277.48 371.634 277.92H368.796ZM370.204 283.266C369.647 283.266 369.185 283.075 368.818 282.694C368.452 282.298 368.268 281.814 368.268 281.242C368.268 280.655 368.452 280.171 368.818 279.79C369.185 279.394 369.647 279.196 370.204 279.196C370.762 279.196 371.224 279.394 371.59 279.79C371.972 280.171 372.162 280.655 372.162 281.242C372.162 281.814 371.972 282.298 371.59 282.694C371.224 283.075 370.762 283.266 370.204 283.266Z" fill="#0055FF"/>
<rect x="240.004" y="306.002" width="120" height="6" rx="3" fill="#CCDDFF"/>
<rect x="240.004" y="316.002" width="120" height="6" rx="3" fill="#CCDDFF"/>
<path d="M368.8 315.92C368.727 315.421 368.741 314.967 368.844 314.556C368.961 314.145 369.123 313.764 369.328 313.412C369.533 313.06 369.761 312.737 370.01 312.444C370.274 312.151 370.523 311.872 370.758 311.608C370.993 311.329 371.183 311.065 371.33 310.816C371.491 310.552 371.572 310.281 371.572 310.002C371.572 309.547 371.433 309.203 371.154 308.968C370.89 308.733 370.538 308.616 370.098 308.616C369.687 308.616 369.321 308.711 368.998 308.902C368.69 309.093 368.389 309.335 368.096 309.628L366.314 308C366.827 307.399 367.436 306.915 368.14 306.548C368.859 306.181 369.651 305.998 370.516 305.998C371.103 305.998 371.645 306.071 372.144 306.218C372.657 306.365 373.097 306.592 373.464 306.9C373.845 307.208 374.139 307.604 374.344 308.088C374.564 308.557 374.674 309.115 374.674 309.76C374.674 310.215 374.593 310.625 374.432 310.992C374.271 311.344 374.065 311.674 373.816 311.982C373.581 312.29 373.325 312.591 373.046 312.884C372.782 313.163 372.533 313.456 372.298 313.764C372.078 314.072 371.902 314.402 371.77 314.754C371.638 315.091 371.594 315.48 371.638 315.92H368.8ZM370.208 321.266C369.651 321.266 369.189 321.075 368.822 320.694C368.455 320.298 368.272 319.814 368.272 319.242C368.272 318.655 368.455 318.171 368.822 317.79C369.189 317.394 369.651 317.196 370.208 317.196C370.765 317.196 371.227 317.394 371.594 317.79C371.975 318.171 372.166 318.655 372.166 319.242C372.166 319.814 371.975 320.298 371.594 320.694C371.227 321.075 370.765 321.266 370.208 321.266Z" fill="#0055FF"/>
<rect x="240" y="344" width="120" height="6" rx="3" fill="#CCDDFF"/>
<rect x="240" y="354" width="120" height="6" rx="3" fill="#CCDDFF"/>
<path d="M368.796 353.918C368.723 353.419 368.738 352.965 368.84 352.554C368.958 352.143 369.119 351.762 369.324 351.41C369.53 351.058 369.757 350.735 370.006 350.442C370.27 350.149 370.52 349.87 370.754 349.606C370.989 349.327 371.18 349.063 371.326 348.814C371.488 348.55 371.568 348.279 371.568 348C371.568 347.545 371.429 347.201 371.15 346.966C370.886 346.731 370.534 346.614 370.094 346.614C369.684 346.614 369.317 346.709 368.994 346.9C368.686 347.091 368.386 347.333 368.092 347.626L366.31 345.998C366.824 345.397 367.432 344.913 368.136 344.546C368.855 344.179 369.647 343.996 370.512 343.996C371.099 343.996 371.642 344.069 372.14 344.216C372.654 344.363 373.094 344.59 373.46 344.898C373.842 345.206 374.135 345.602 374.34 346.086C374.56 346.555 374.67 347.113 374.67 347.758C374.67 348.213 374.59 348.623 374.428 348.99C374.267 349.342 374.062 349.672 373.812 349.98C373.578 350.288 373.321 350.589 373.042 350.882C372.778 351.161 372.529 351.454 372.294 351.762C372.074 352.07 371.898 352.4 371.766 352.752C371.634 353.089 371.59 353.478 371.634 353.918H368.796ZM370.204 359.264C369.647 359.264 369.185 359.073 368.818 358.692C368.452 358.296 368.268 357.812 368.268 357.24C368.268 356.653 368.452 356.169 368.818 355.788C369.185 355.392 369.647 355.194 370.204 355.194C370.762 355.194 371.224 355.392 371.59 355.788C371.972 356.169 372.162 356.653 372.162 357.24C372.162 357.812 371.972 358.296 371.59 358.692C371.224 359.073 370.762 359.264 370.204 359.264Z" fill="#0055FF"/>
<rect x="240.004" y="382.002" width="120" height="6" rx="3" fill="#CCDDFF"/>
<rect x="240.004" y="392.002" width="120" height="6" rx="3" fill="#CCDDFF"/>
<path d="M368.8 391.92C368.727 391.421 368.741 390.967 368.844 390.556C368.961 390.145 369.123 389.764 369.328 389.412C369.533 389.06 369.761 388.737 370.01 388.444C370.274 388.151 370.523 387.872 370.758 387.608C370.993 387.329 371.183 387.065 371.33 386.816C371.491 386.552 371.572 386.281 371.572 386.002C371.572 385.547 371.433 385.203 371.154 384.968C370.89 384.733 370.538 384.616 370.098 384.616C369.687 384.616 369.321 384.711 368.998 384.902C368.69 385.093 368.389 385.335 368.096 385.628L366.314 384C366.827 383.399 367.436 382.915 368.14 382.548C368.859 382.181 369.651 381.998 370.516 381.998C371.103 381.998 371.645 382.071 372.144 382.218C372.657 382.365 373.097 382.592 373.464 382.9C373.845 383.208 374.139 383.604 374.344 384.088C374.564 384.557 374.674 385.115 374.674 385.76C374.674 386.215 374.593 386.625 374.432 386.992C374.271 387.344 374.065 387.674 373.816 387.982C373.581 388.29 373.325 388.591 373.046 388.884C372.782 389.163 372.533 389.456 372.298 389.764C372.078 390.072 371.902 390.402 371.77 390.754C371.638 391.091 371.594 391.48 371.638 391.92H368.8ZM370.208 397.266C369.651 397.266 369.189 397.075 368.822 396.694C368.455 396.298 368.272 395.814 368.272 395.242C368.272 394.655 368.455 394.171 368.822 393.79C369.189 393.394 369.651 393.196 370.208 393.196C370.765 393.196 371.227 393.394 371.594 393.79C371.975 394.171 372.166 394.655 372.166 395.242C372.166 395.814 371.975 396.298 371.594 396.694C371.227 397.075 370.765 397.266 370.208 397.266Z" fill="#0055FF"/>
<rect x="415" y="259" width="120" height="120" rx="60" fill="#99EBB4"/>
<path d="M451 321.667L467 337.667L499 300.334" stroke="#1A1A1A" stroke-width="8"/>
<rect x="116" y="329" width="120" height="120" rx="60" fill="#FFBDC8"/>
<path fill-rule="evenodd" clip-rule="evenodd" d="M176.001 390.855L156.524 410.333L154.668 408.477L174.145 388.999L154.668 369.522L156.524 367.666L176.001 387.143L195.479 367.666L197.335 369.522L177.857 388.999L197.335 408.477L195.479 410.333L176.001 390.855Z" fill="#1A1A1A" stroke="#1A1A1A" stroke-width="4"/>
<defs>
<filter id="filter0_d_2076_68576" x="32.4977" y="83.2047" width="251.001" height="289.589" filterUnits="userSpaceOnUse" color-interpolation-filters="sRGB">
<feFlood flood-opacity="0" result="BackgroundImageFix"/>
<feColorMatrix in="SourceAlpha" type="matrix" values="0 0 0 0 0 0 0 0 0 0 0 0 0 0 0 0 0 0 127 0" result="hardAlpha"/>
<feOffset/>
<feGaussianBlur stdDeviation="0.831232"/>
<feColorMatrix type="matrix" values="0 0 0 0 0.101961 0 0 0 0 0.101961 0 0 0 0 0.101961 0 0 0 0.2 0"/>
<feBlend mode="normal" in2="BackgroundImageFix" result="effect1_dropShadow_2076_68576"/>
<feBlend mode="normal" in="SourceGraphic" in2="effect1_dropShadow_2076_68576" result="shape"/>
</filter>
<filter id="filter1_d_2076_68576" x="310.818" y="64.8473" width="261.161" height="294.969" filterUnits="userSpaceOnUse" color-interpolation-filters="sRGB">
<feFlood flood-opacity="0" result="BackgroundImageFix"/>
<feColorMatrix in="SourceAlpha" type="matrix" values="0 0 0 0 0 0 0 0 0 0 0 0 0 0 0 0 0 0 127 0" result="hardAlpha"/>
<feOffset/>
<feGaussianBlur stdDeviation="0.831232"/>
<feColorMatrix type="matrix" values="0 0 0 0 0.101961 0 0 0 0 0.101961 0 0 0 0 0.101961 0 0 0 0.2 0"/>
<feBlend mode="normal" in2="BackgroundImageFix" result="effect1_dropShadow_2076_68576"/>
<feBlend mode="normal" in="SourceGraphic" in2="effect1_dropShadow_2076_68576" result="shape"/>
</filter>
<filter id="filter2_d_2076_68576" x="208.357" y="183.341" width="203.919" height="253.352" filterUnits="userSpaceOnUse" color-interpolation-filters="sRGB">
<feFlood flood-opacity="0" result="BackgroundImageFix"/>
<feColorMatrix in="SourceAlpha" type="matrix" values="0 0 0 0 0 0 0 0 0 0 0 0 0 0 0 0 0 0 127 0" result="hardAlpha"/>
<feOffset/>
<feGaussianBlur stdDeviation="0.831232"/>
<feColorMatrix type="matrix" values="0 0 0 0 0.101961 0 0 0 0 0.101961 0 0 0 0 0.101961 0 0 0 0.2 0"/>
<feBlend mode="normal" in2="BackgroundImageFix" result="effect1_dropShadow_2076_68576"/>
<feBlend mode="normal" in="SourceGraphic" in2="effect1_dropShadow_2076_68576" result="shape"/>
</filter>
</defs>
</svg>
